<svg width="50" height="50" viewBox="0 0 50 50" fill="none" xmlns="http://www.w3.org/2000/svg">
<path d="M48.3782 30.0875H41.1V26.0694C41.1 25.625 40.7403 25.2641 40.296 25.2629L28.5669 25.2282V23.844C28.5669 23.3988 28.2056 23.0375 27.7605 23.0375H25.946V19.0806H31.7843C35.2698 19.0806 38.1048 16.3504 38.1048 12.9944C38.1048 10.0714 35.9101 7.57177 32.9899 7.0246C32.6258 3.09274 29.1815 0 25 0C20.825 0 17.3847 3.08306 17.0121 7.02419C14.0907 7.57056 11.8952 10.0706 11.8952 12.9944C11.8952 16.3504 14.7306 19.0806 18.2157 19.0806H24.3331V23.0375H22.5185C22.0734 23.0375 21.7121 23.3988 21.7121 23.844V25.2629H9.70645C9.26129 25.2629 8.9 25.6242 8.9 26.0694V30.0436H1.62177C0.727419 30.0436 0 30.775 0 31.6742V44.3383C0 45.2375 0.727419 45.969 1.62177 45.969H8.9V48.3431H6.22823C5.78306 48.3431 5.42177 48.7044 5.42177 49.1496C5.42177 49.5948 5.78306 49.956 6.22823 49.956H13.1843C13.6294 49.956 13.9907 49.5948 13.9907 49.1496C13.9907 48.7044 13.6294 48.3431 13.1843 48.3431H10.5129V45.969H17.7907C18.6851 45.969 19.4125 45.2375 19.4125 44.3383V31.6742C19.4125 30.775 18.6851 30.0436 17.7907 30.0436H10.5129V26.8758H21.7121V28.2948C21.7121 28.7399 22.0734 29.1012 22.5185 29.1012H27.7605C28.2056 29.1012 28.5669 28.7399 28.5669 28.2948V26.8411L39.4871 26.8734V30.0875H32.2093C31.3149 30.0875 30.5875 30.819 30.5875 31.7181V44.3823C30.5875 45.2815 31.3149 46.0129 32.2093 46.0129H39.4871V48.3871H36.8157C36.3706 48.3871 36.0093 48.7484 36.0093 49.1936C36.0093 49.6387 36.3706 50 36.8157 50H43.7718C44.2169 50 44.5782 49.6387 44.5782 49.1936C44.5782 48.7484 44.2169 48.3871 43.7718 48.3871H41.1V46.0129H48.3782C49.2726 46.0129 50 45.2815 50 44.3823V31.7181C50 30.819 49.2726 30.0875 48.3782 30.0875ZM13.5081 12.9948C13.5081 10.677 15.4129 8.72056 17.8448 8.54032C18.2657 8.50887 18.5911 8.1375 18.5911 7.71532C18.5911 4.3504 21.4661 1.6129 25 1.6129C28.5339 1.6129 31.4089 4.3504 31.4093 7.69073C31.4089 7.70202 31.4085 7.72419 31.4085 7.73548C31.4085 8.15766 31.7343 8.50847 32.1552 8.53992C34.5871 8.72016 36.4919 10.677 36.4919 12.9944C36.4919 15.4609 34.3802 17.4677 31.7843 17.4677H18.2157C15.6198 17.4677 13.5081 15.4613 13.5081 12.9948ZM17.7907 44.356L1.6129 44.3383V41.9718H17.7976L17.7907 44.356ZM17.7996 31.6742V40.3589H1.61371L1.62177 31.6565L17.7996 31.6742ZM26.954 27.4883H23.325V24.6504H26.954V27.4883ZM48.3871 31.7181V40.4024H32.2012L32.2093 31.7004L48.3871 31.7181ZM48.3782 44.4L32.2004 44.3823V42.0153H48.3851L48.3782 44.4Z" fill="white"/>
</svg>
