<svg width="46" height="50" viewBox="0 0 46 50" fill="none" xmlns="http://www.w3.org/2000/svg">
<path d="M20.6289 37.3005C30.8564 37.3005 39.1474 29.1315 39.1474 19.0546C39.1474 8.97759 30.8564 0.808594 20.6289 0.808594C10.4014 0.808594 2.11035 8.97759 2.11035 19.0546C2.11035 29.1315 10.4014 37.3005 20.6289 37.3005Z" fill="#5BA2FF"/>
<path d="M8.54798 18.6565C13.2689 18.6565 17.096 14.8544 17.096 10.1642C17.096 5.47402 13.2689 1.67188 8.54798 1.67188C3.82706 1.67188 0 5.47402 0 10.1642C0 14.8544 3.82706 18.6565 8.54798 18.6565Z" fill="#32BA7C"/>
<path d="M20.6284 39.1895V44.8604C20.6284 47.2604 25.9357 49.1931 32.4913 49.1931C39.047 49.1931 44.3542 47.2604 44.3542 44.8604V39.1895H20.6284Z" fill="#5BA2FF"/>
<path d="M20.6284 33.6465V39.3174C20.6284 41.7174 25.9357 43.6501 32.4913 43.6501C39.047 43.6501 44.3542 41.717 44.3542 39.317V33.6465H20.6284Z" fill="#5BA2FF"/>
<path d="M20.6284 27.8057V33.4766C20.6284 35.8766 25.9357 37.8093 32.4913 37.8093C39.047 37.8093 44.3542 35.8766 44.3542 33.4766V27.8057H20.6284Z" fill="#5BA2FF"/>
<path d="M32.4924 32.3714C39.0441 32.3714 44.3553 30.4316 44.3553 28.0387C44.3553 25.6459 39.0441 23.7061 32.4924 23.7061C25.9407 23.7061 20.6295 25.6459 20.6295 28.0387C20.6295 30.4316 25.9407 32.3714 32.4924 32.3714Z" fill="#32BA7C"/>
<path d="M45.0985 27.4944C44.4303 24.5052 38.2908 22.8988 32.492 22.8988C26.7573 22.8988 20.6932 24.471 19.9134 27.3968C18.5025 27.4593 17.1852 27.6665 15.9706 27.9867C15.3932 25.4935 15.0174 22.6766 14.9916 19.8597H26.2045C26.1799 20.471 26.1424 21.0968 26.0844 21.7327C26.044 22.1766 26.371 22.5694 26.8146 22.6097C27.2594 22.652 27.6505 22.323 27.6912 21.8794C27.7537 21.1936 27.794 20.5177 27.819 19.8597H38.3202C38.292 20.4722 38.2335 21.0831 38.1416 21.6831C38.0739 22.1238 38.3759 22.5355 38.8162 22.6032C39.2525 22.671 39.6682 22.369 39.7356 21.9282C39.8803 20.9839 39.9541 20.0161 39.9541 19.0524C39.9541 8.54718 31.2852 0 20.6291 0C9.97307 0 1.30371 8.54718 1.30371 19.0528C1.30371 29.2923 9.5396 37.6669 19.8227 38.0859V44.8601C19.8227 48.1988 26.3501 50 32.492 50C38.6339 50 45.1614 48.1988 45.1614 44.8601V27.8048C45.1614 27.6948 45.1388 27.5899 45.0985 27.4944ZM15.0235 18.246C15.1259 15.7435 15.5239 13.0637 16.1501 10.5508C17.3081 10.8464 18.5529 11.0419 19.8884 11.0895C21.7525 11.1484 23.621 10.9153 25.4126 10.3956C25.919 12.894 26.2243 15.6387 26.238 18.2464H15.0235V18.246ZM38.3202 18.246H27.8517C27.8432 15.4194 27.5194 12.5069 26.9674 9.8629C29.3291 8.9371 31.2654 7.61976 32.746 6.35081C36.0001 9.36169 38.1025 13.5645 38.3202 18.246ZM31.4924 5.29435C30.2029 6.37056 28.565 7.46734 26.5977 8.26935C25.9307 5.65524 25.0368 3.4129 24.0126 1.9371C26.792 2.46855 29.3392 3.64234 31.4924 5.29435ZM20.8178 1.61895C21.0025 1.62097 21.1872 1.6254 21.3706 1.63266C22.4384 2.01694 23.121 3.45645 23.5662 4.40887C24.2227 5.8125 24.6831 7.30847 25.0561 8.80968C23.5158 9.26774 21.8114 9.53306 19.9428 9.47621C18.742 9.43347 17.6206 9.25766 16.5755 8.99234C16.7908 8.26653 17.019 7.55645 17.271 6.88629C18.5307 3.53145 19.9009 1.88669 20.8178 1.61895ZM18.138 1.78992C17.0751 3.14556 16.2634 4.98105 15.761 6.31774C15.4981 7.01774 15.2598 7.75927 15.0348 8.51694C12.821 7.71129 11.0275 6.51694 9.66984 5.36814C12.0702 3.50081 14.9694 2.23145 18.138 1.78992ZM8.4271 6.43024C9.9521 7.75363 12.0194 9.15806 14.6069 10.0782C13.9368 12.744 13.513 15.5931 13.4094 18.246H2.93758C3.15331 13.6056 5.22145 9.43548 8.4271 6.43024ZM2.93758 19.8601H13.3791C13.4045 22.7581 13.784 25.7613 14.4134 28.4718C11.9973 29.3415 10.04 30.602 8.5654 31.8056C5.28032 28.7911 3.15653 24.5669 2.93758 19.8601ZM9.82952 32.8613C11.1243 31.8383 12.7904 30.7927 14.8142 30.044C15.5327 32.6036 16.4767 34.7915 17.5424 36.2214C14.6759 35.723 12.046 34.5456 9.82952 32.8613ZM19.2989 35.8089C18.2569 34.7419 17.186 32.4488 16.3719 29.5516C17.4392 29.2694 18.5912 29.081 19.8227 29.0145V36.2448C19.6251 36.1198 19.444 35.9573 19.2989 35.8089ZM43.5485 44.8601C43.5485 46.3323 39.342 48.3859 32.492 48.3859C25.642 48.3859 21.4356 46.3327 21.4356 44.8601V41.923C23.7517 43.5815 28.2142 44.4565 32.492 44.4565C36.7698 44.4565 41.2323 43.5815 43.5485 41.923V44.8601ZM43.5485 39.3165C43.5485 40.7887 39.342 42.8423 32.492 42.8423C25.642 42.8423 21.4356 40.7891 21.4356 39.3165V36.0823C23.7517 37.7407 28.2142 38.6157 32.492 38.6157C36.7698 38.6157 41.2323 37.7407 43.5485 36.0823V39.3165ZM43.5485 33.4758C43.5485 34.948 39.342 37.0016 32.492 37.0016C25.642 37.0016 21.4356 34.9484 21.4356 33.4758V30.6452C23.7517 32.3036 28.2142 33.1786 32.492 33.1786C36.7698 33.1786 41.2323 32.3036 43.5485 30.6452V33.4758ZM32.492 31.5645C25.642 31.5645 21.4356 29.5113 21.4356 28.0387C21.4356 26.5661 25.642 24.5129 32.492 24.5129C39.342 24.5129 43.5485 26.5665 43.5485 28.0387C43.5485 29.5109 39.342 31.5645 32.492 31.5645Z" fill="white"/>
</svg>
