<svg width="50" height="50" viewBox="0 0 50 50" fill="none" xmlns="http://www.w3.org/2000/svg">
<path d="M25.0001 33.4846C29.6865 33.4846 33.4856 29.6856 33.4856 24.9992C33.4856 20.3128 29.6865 16.5137 25.0001 16.5137C20.3137 16.5137 16.5146 20.3128 16.5146 24.9992C16.5146 29.6856 20.3137 33.4846 25.0001 33.4846Z" fill="white" fill-opacity="0.3"/>
<path d="M49.1936 31.7178C49.1936 31.2625 48.8287 30.8936 48.3783 30.8936H32.2094C31.759 30.8936 31.394 31.2625 31.394 31.7178V41.2085H49.1936V31.7178Z" fill="white" fill-opacity="0.3"/>
<path d="M31.394 41.209V44.382C31.394 44.8372 31.759 45.2062 32.2094 45.2062H48.3783C48.8287 45.2062 49.1936 44.8372 49.1936 44.382V41.209H31.394Z" fill="#32BA7C"/>
<path d="M22.5186 23.8438H27.7605V28.2946H22.5186V23.8438Z" fill="#5BA2FF"/>
<path d="M18.6057 31.6738C18.6057 31.2186 18.2408 30.8496 17.7903 30.8496H1.6214C1.171 30.8496 0.806076 31.219 0.806076 31.6738V41.1645H18.6057V31.6738Z" fill="white" fill-opacity="0.3"/>
<path d="M0.806152 41.1641V44.3374C0.806152 44.7927 1.17107 45.1616 1.62147 45.1616H17.7904C18.2408 45.1616 18.6057 44.7927 18.6057 44.3374V41.1641H0.806152Z" fill="#32BA7C"/>
<path d="M32.2141 7.7351C32.2141 7.72825 32.2145 7.72139 32.2145 7.71413C32.2149 3.89881 28.9842 0.805664 24.9996 0.805664C21.0149 0.805664 17.7842 3.89881 17.7842 7.71413C17.7842 7.72099 17.7846 7.72784 17.7846 7.7351C14.9415 7.94599 12.7012 10.217 12.7012 12.9936C12.7012 15.9093 15.1701 18.2734 18.2153 18.2734H31.7838C34.8294 18.2734 37.2979 15.9097 37.2979 12.9936C37.2979 10.217 35.0576 7.94599 32.2141 7.7351Z" fill="#32BA7C"/>
<path d="M48.3782 30.0875H41.1V26.0694C41.1 25.625 40.7403 25.2641 40.296 25.2629L28.5669 25.2282V23.844C28.5669 23.3988 28.2056 23.0375 27.7605 23.0375H25.946V19.0806H31.7843C35.2698 19.0806 38.1048 16.3504 38.1048 12.9944C38.1048 10.0714 35.9101 7.57177 32.9899 7.0246C32.6258 3.09274 29.1815 0 25 0C20.825 0 17.3847 3.08306 17.0121 7.02419C14.0907 7.57056 11.8952 10.0706 11.8952 12.9944C11.8952 16.3504 14.7306 19.0806 18.2157 19.0806H24.3331V23.0375H22.5185C22.0734 23.0375 21.7121 23.3988 21.7121 23.844V25.2629H9.70645C9.26129 25.2629 8.9 25.6242 8.9 26.0694V30.0436H1.62177C0.727419 30.0436 0 30.775 0 31.6742V44.3383C0 45.2375 0.727419 45.969 1.62177 45.969H8.9V48.3431H6.22823C5.78306 48.3431 5.42177 48.7044 5.42177 49.1496C5.42177 49.5948 5.78306 49.956 6.22823 49.956H13.1843C13.6294 49.956 13.9907 49.5948 13.9907 49.1496C13.9907 48.7044 13.6294 48.3431 13.1843 48.3431H10.5129V45.969H17.7907C18.6851 45.969 19.4125 45.2375 19.4125 44.3383V31.6742C19.4125 30.775 18.6851 30.0436 17.7907 30.0436H10.5129V26.8758H21.7121V28.2948C21.7121 28.7399 22.0734 29.1012 22.5185 29.1012H27.7605C28.2056 29.1012 28.5669 28.7399 28.5669 28.2948V26.8411L39.4871 26.8734V30.0875H32.2093C31.3149 30.0875 30.5875 30.819 30.5875 31.7181V44.3823C30.5875 45.2815 31.3149 46.0129 32.2093 46.0129H39.4871V48.3871H36.8157C36.3706 48.3871 36.0093 48.7484 36.0093 49.1936C36.0093 49.6387 36.3706 50 36.8157 50H43.7718C44.2169 50 44.5782 49.6387 44.5782 49.1936C44.5782 48.7484 44.2169 48.3871 43.7718 48.3871H41.1V46.0129H48.3782C49.2726 46.0129 50 45.2815 50 44.3823V31.7181C50 30.819 49.2726 30.0875 48.3782 30.0875ZM13.5081 12.9948C13.5081 10.677 15.4129 8.72056 17.8448 8.54032C18.2657 8.50887 18.5911 8.1375 18.5911 7.71532C18.5911 4.3504 21.4661 1.6129 25 1.6129C28.5339 1.6129 31.4089 4.3504 31.4093 7.69073C31.4089 7.70202 31.4085 7.72419 31.4085 7.73548C31.4085 8.15766 31.7343 8.50847 32.1552 8.53992C34.5871 8.72016 36.4919 10.677 36.4919 12.9944C36.4919 15.4609 34.3802 17.4677 31.7843 17.4677H18.2157C15.6198 17.4677 13.5081 15.4613 13.5081 12.9948ZM17.7907 44.356L1.6129 44.3383V41.9718H17.7976L17.7907 44.356ZM17.7996 31.6742V40.3589H1.61371L1.62177 31.6565L17.7996 31.6742ZM26.954 27.4883H23.325V24.6504H26.954V27.4883ZM48.3871 31.7181V40.4024H32.2012L32.2093 31.7004L48.3871 31.7181ZM48.3782 44.4L32.2004 44.3823V42.0153H48.3851L48.3782 44.4Z" fill="white"/>
<path d="M21.8933 6.39936C21.2275 6.39936 20.8517 5.60621 21.2634 5.09008C22.1509 3.97717 23.4941 3.33887 24.9477 3.33887C26.3054 3.33887 27.5913 3.90943 28.4759 4.90419C28.7719 5.23726 28.7421 5.74694 28.409 6.0429C28.0759 6.33887 27.5663 6.30903 27.2703 5.97597C26.6917 5.32516 25.8449 4.95177 24.9477 4.95177C23.9876 4.95177 23.1042 5.36871 22.5243 6.09573C22.365 6.29532 22.1304 6.39936 21.8933 6.39936Z" fill="white"/>
</svg>
