<svg width="45" height="50" viewBox="0 0 45 50" fill="none" xmlns="http://www.w3.org/2000/svg">
<path d="M44.0985 27.4944C43.4303 24.5052 37.2908 22.8988 31.492 22.8988C25.7573 22.8988 19.6932 24.471 18.9134 27.3968C17.5025 27.4593 16.1852 27.6665 14.9706 27.9867C14.3932 25.4935 14.0174 22.6766 13.9916 19.8597H25.2045C25.1799 20.471 25.1424 21.0968 25.0844 21.7327C25.044 22.1766 25.371 22.5694 25.8146 22.6097C26.2594 22.652 26.6505 22.323 26.6912 21.8794C26.7537 21.1935 26.794 20.5177 26.819 19.8597H37.3202C37.292 20.4722 37.2335 21.0831 37.1416 21.6831C37.0739 22.1238 37.3759 22.5355 37.8162 22.6032C38.2525 22.671 38.6682 22.369 38.7356 21.9282C38.8803 20.9839 38.9541 20.0161 38.9541 19.0524C38.9541 8.54718 30.2852 0 19.6291 0C8.97307 0 0.303711 8.54718 0.303711 19.0528C0.303711 29.2923 8.5396 37.6669 18.8227 38.0859V44.8601C18.8227 48.1988 25.3501 50 31.492 50C37.634 50 44.1614 48.1988 44.1614 44.8601V27.8048C44.1614 27.6948 44.1388 27.5899 44.0985 27.4944ZM14.0235 18.246C14.1259 15.7435 14.5239 13.0637 15.1501 10.5508C16.3081 10.8464 17.5529 11.0419 18.8884 11.0895C20.7525 11.1484 22.621 10.9153 24.4126 10.3956C24.919 12.894 25.2243 15.6387 25.238 18.2464L14.0235 18.246ZM37.3202 18.246H26.8517C26.8432 15.4194 26.5194 12.5069 25.9674 9.8629C28.3291 8.9371 30.2654 7.61976 31.746 6.35081C35.0001 9.36169 37.1025 13.5645 37.3202 18.246ZM30.4924 5.29435C29.2029 6.37056 27.565 7.46734 25.5977 8.26935C24.9307 5.65524 24.0368 3.4129 23.0126 1.9371C25.792 2.46855 28.3392 3.64234 30.4924 5.29435ZM19.8178 1.61895C20.0025 1.62097 20.1872 1.6254 20.3706 1.63266C21.4384 2.01694 22.121 3.45645 22.5662 4.40887C23.2227 5.8125 23.6831 7.30847 24.0561 8.80968C22.5158 9.26774 20.8114 9.53306 18.9428 9.47621C17.742 9.43347 16.6206 9.25766 15.5755 8.99234C15.7908 8.26653 16.019 7.55645 16.271 6.88629C17.5307 3.53145 18.9009 1.88669 19.8178 1.61895ZM17.138 1.78992C16.0751 3.14556 15.2634 4.98105 14.761 6.31774C14.4981 7.01774 14.2598 7.75927 14.0348 8.51694C11.821 7.71129 10.0275 6.51694 8.66984 5.36814C11.0702 3.50081 13.9694 2.23145 17.138 1.78992ZM7.4271 6.43024C8.9521 7.75363 11.0194 9.15806 13.6069 10.0782C12.9368 12.744 12.513 15.5931 12.4094 18.246H1.93758C2.15331 13.6056 4.22145 9.43548 7.4271 6.43024ZM1.93758 19.8601H12.3791C12.4045 22.7581 12.784 25.7613 13.4134 28.4718C10.9973 29.3415 9.04 30.602 7.5654 31.8056C4.28032 28.7911 2.15653 24.5669 1.93758 19.8601ZM8.82952 32.8613C10.1243 31.8383 11.7904 30.7927 13.8142 30.044C14.5327 32.6036 15.4767 34.7915 16.5424 36.2214C13.6759 35.723 11.046 34.5456 8.82952 32.8613ZM18.2989 35.8089C17.2569 34.7419 16.186 32.4488 15.3719 29.5516C16.4392 29.2694 17.5912 29.081 18.8227 29.0145V36.2448C18.6251 36.1198 18.444 35.9573 18.2989 35.8089ZM42.5485 44.8601C42.5485 46.3323 38.342 48.3859 31.492 48.3859C24.642 48.3859 20.4356 46.3327 20.4356 44.8601V41.923C22.7517 43.5815 27.2142 44.4565 31.492 44.4565C35.7698 44.4565 40.2323 43.5815 42.5485 41.923V44.8601ZM42.5485 39.3165C42.5485 40.7887 38.342 42.8423 31.492 42.8423C24.642 42.8423 20.4356 40.7891 20.4356 39.3165V36.0823C22.7517 37.7407 27.2142 38.6157 31.492 38.6157C35.7698 38.6157 40.2323 37.7407 42.5485 36.0823V39.3165ZM42.5485 33.4758C42.5485 34.948 38.342 37.0016 31.492 37.0016C24.642 37.0016 20.4356 34.9484 20.4356 33.4758V30.6452C22.7517 32.3036 27.2142 33.1786 31.492 33.1786C35.7698 33.1786 40.2323 32.3036 42.5485 30.6452V33.4758ZM31.492 31.5645C24.642 31.5645 20.4356 29.5113 20.4356 28.0387C20.4356 26.5661 24.642 24.5129 31.492 24.5129C38.342 24.5129 42.5485 26.5665 42.5485 28.0387C42.5485 29.5109 38.342 31.5645 31.492 31.5645Z" fill="white"/>
</svg>
